<svg xmlns="http://www.w3.org/2000/svg" version="1.1" xmlns:xlink="http://www.w3.org/1999/xlink" xmlns:svgjs="http://svgjs.dev/svgjs" viewBox="0 0 800 800"><defs><linearGradient x1="50%" y1="0%" x2="50%" y2="100%" id="ffflurry-grad" gradientTransform="rotate(270)"><stop stop-color="hsl(238, 82%, 13%)" stop-opacity="1" offset="0%"></stop><stop stop-color="hsl(1.4, 100%, 67%)" stop-opacity="1" offset="45%"></stop><stop stop-color="hsl(167, 52%, 78%)" stop-opacity="1" offset="100%"></stop></linearGradient></defs><rect width="100%" height="100%" fill="hsl(238, 0%, 0%)"></rect><g fill="#14b8a6"><rect width="551" height="3" x="-97.5" y="610.5" rx="1.5" transform="rotate(45, 178, 612)" opacity="0.96"></rect><rect width="144" height="3" x="579" y="43.5" rx="1.5" transform="rotate(45, 651, 45)" opacity="0.49"></rect><rect width="128" height="3" x="62" y="223.5" rx="1.5" transform="rotate(45, 126, 225)" opacity="0.51"></rect><rect width="45" height="3" x="-8.5" y="583.5" rx="1.5" transform="rotate(45, 14, 585)" opacity="0.94"></rect><rect width="526" height="3" x="245" y="45.5" rx="1.5" transform="rotate(45, 508, 47)" opacity="0.74"></rect><rect width="35" height="3" x="505.5" y="397.5" rx="1.5" transform="rotate(45, 523, 399)" opacity="0.51"></rect><rect width="556" height="3" x="448" y="241.5" rx="1.5" transform="rotate(45, 726, 243)" opacity="0.32"></rect><rect width="129" height="3" x="401.5" y="666.5" rx="1.5" transform="rotate(45, 466, 668)" opacity="0.49"></rect><rect width="502" height="3" x="-206" y="651.5" rx="1.5" transform="rotate(45, 45, 653)" opacity="0.28"></rect><rect width="96" height="3" x="450" y="483.5" rx="1.5" transform="rotate(45, 498, 485)" opacity="0.92"></rect><rect width="113" height="3" x="173.5" y="410.5" rx="1.5" transform="rotate(45, 230, 412)" opacity="0.44"></rect><rect width="302" height="3" x="419" y="607.5" rx="1.5" transform="rotate(45, 570, 609)" opacity="0.62"></rect><rect width="306" height="3" x="-104" y="305.5" rx="1.5" transform="rotate(45, 49, 307)" opacity="0.22"></rect><rect width="270" height="3" x="616" y="569.5" rx="1.5" transform="rotate(45, 751, 571)" opacity="0.64"></rect><rect width="378" height="3" x="567" y="52.5" rx="1.5" transform="rotate(45, 756, 54)" opacity="0.68"></rect><rect width="644" height="3" x="-137" y="143.5" rx="1.5" transform="rotate(45, 185, 145)" opacity="0.50"></rect><rect width="296" height="3" x="-112" y="234.5" rx="1.5" transform="rotate(45, 36, 236)" opacity="0.51"></rect><rect width="379" height="3" x="-151.5" y="365.5" rx="1.5" transform="rotate(45, 38, 367)" opacity="0.50"></rect><rect width="216" height="3" x="562" y="146.5" rx="1.5" transform="rotate(45, 670, 148)" opacity="0.68"></rect><rect width="501" height="3" x="380.5" y="252.5" rx="1.5" transform="rotate(45, 631, 254)" opacity="0.68"></rect><rect width="187" height="3" x="-61.5" y="516.5" rx="1.5" transform="rotate(45, 32, 518)" opacity="0.72"></rect><rect width="63" height="3" x="400.5" y="310.5" rx="1.5" transform="rotate(45, 432, 312)" opacity="0.31"></rect><rect width="114" height="3" x="216" y="79.5" rx="1.5" transform="rotate(45, 273, 81)" opacity="0.87"></rect><rect width="171" height="3" x="503.5" y="464.5" rx="1.5" transform="rotate(45, 589, 466)" opacity="0.61"></rect><rect width="341" height="3" x="-115.5" y="416.5" rx="1.5" transform="rotate(45, 55, 418)" opacity="0.19"></rect><rect width="553" height="3" x="196.5" y="757.5" rx="1.5" transform="rotate(45, 473, 759)" opacity="0.82"></rect><rect width="238" height="3" x="617" y="765.5" rx="1.5" transform="rotate(45, 736, 767)" opacity="0.25"></rect><rect width="691" height="3" x="347.5" y="409.5" rx="1.5" transform="rotate(45, 693, 411)" opacity="0.78"></rect><rect width="451" height="3" x="19.5" y="217.5" rx="1.5" transform="rotate(45, 245, 219)" opacity="0.78"></rect><rect width="283" height="3" x="-40.5" y="594.5" rx="1.5" transform="rotate(45, 101, 596)" opacity="0.72"></rect><rect width="57" height="3" x="124.5" y="772.5" rx="1.5" transform="rotate(45, 153, 774)" opacity="0.38"></rect><rect width="397" height="3" x="323.5" y="318.5" rx="1.5" transform="rotate(45, 522, 320)" opacity="0.55"></rect><rect width="504" height="3" x="139" y="553.5" rx="1.5" transform="rotate(45, 391, 555)" opacity="0.39"></rect><rect width="447" height="3" x="160.5" y="687.5" rx="1.5" transform="rotate(45, 384, 689)" opacity="0.50"></rect><rect width="599" height="3" x="444.5" y="328.5" rx="1.5" transform="rotate(45, 744, 330)" opacity="0.42"></rect><rect width="404" height="3" x="398" y="759.5" rx="1.5" transform="rotate(45, 600, 761)" opacity="0.61"></rect><rect width="570" height="3" x="34" y="611.5" rx="1.5" transform="rotate(45, 319, 613)" opacity="0.71"></rect><rect width="290" height="3" x="109" y="764.5" rx="1.5" transform="rotate(45, 254, 766)" opacity="0.67"></rect><rect width="79" height="3" x="73.5" y="710.5" rx="1.5" transform="rotate(45, 113, 712)" opacity="0.17"></rect><rect width="461" height="3" x="-78.5" y="48.5" rx="1.5" transform="rotate(45, 152, 50)" opacity="0.80"></rect><rect width="443" height="3" x="-43.5" y="345.5" rx="1.5" transform="rotate(45, 178, 347)" opacity="0.31"></rect><rect width="582" height="3" x="314" y="367.5" rx="1.5" transform="rotate(45, 605, 369)" opacity="0.85"></rect><rect width="139" height="3" x="161.5" y="302.5" rx="1.5" transform="rotate(45, 231, 304)" opacity="0.27"></rect><rect width="345" height="3" x="201.5" y="413.5" rx="1.5" transform="rotate(45, 374, 415)" opacity="0.22"></rect><rect width="179" height="3" x="402.5" y="569.5" rx="1.5" transform="rotate(45, 492, 571)" opacity="0.19"></rect><rect width="428" height="3" x="370" y="131.5" rx="1.5" transform="rotate(45, 584, 133)" opacity="0.43"></rect><rect width="132" height="3" x="364" y="436.5" rx="1.5" transform="rotate(45, 430, 438)" opacity="0.61"></rect><rect width="320" height="3" x="-110" y="470.5" rx="1.5" transform="rotate(45, 50, 472)" opacity="0.17"></rect><rect width="246" height="3" x="233" y="765.5" rx="1.5" transform="rotate(45, 356, 767)" opacity="0.62"></rect><rect width="71" height="3" x="276.5" y="446.5" rx="1.5" transform="rotate(45, 312, 448)" opacity="0.74"></rect><rect width="243" height="3" x="162.5" y="339.5" rx="1.5" transform="rotate(45, 284, 341)" opacity="0.16"></rect><rect width="420" height="3" x="-93" y="326.5" rx="1.5" transform="rotate(45, 117, 328)" opacity="0.92"></rect><rect width="340" height="3" x="295" y="381.5" rx="1.5" transform="rotate(45, 465, 383)" opacity="0.36"></rect><rect width="341" height="3" x="390.5" y="266.5" rx="1.5" transform="rotate(45, 561, 268)" opacity="0.18"></rect><rect width="596" height="3" x="85" y="75.5" rx="1.5" transform="rotate(45, 383, 77)" opacity="0.11"></rect><rect width="238" height="3" x="535" y="583.5" rx="1.5" transform="rotate(45, 654, 585)" opacity="0.17"></rect><rect width="772" height="3" x="-127" y="525.5" rx="1.5" transform="rotate(45, 259, 527)" opacity="0.84"></rect><rect width="437" height="3" x="242.5" y="221.5" rx="1.5" transform="rotate(45, 461, 223)" opacity="0.19"></rect><rect width="518" height="3" x="49" y="700.5" rx="1.5" transform="rotate(45, 308, 702)" opacity="0.98"></rect><rect width="256" height="3" x="-83" y="60.5" rx="1.5" transform="rotate(45, 45, 62)" opacity="0.37"></rect><rect width="292" height="3" x="444" y="686.5" rx="1.5" transform="rotate(45, 590, 688)" opacity="0.56"></rect><rect width="426" height="3" x="546" y="159.5" rx="1.5" transform="rotate(45, 759, 161)" opacity="0.53"></rect><rect width="76" height="3" x="704" y="692.5" rx="1.5" transform="rotate(45, 742, 694)" opacity="0.57"></rect><rect width="136" height="3" x="102" y="266.5" rx="1.5" transform="rotate(45, 170, 268)" opacity="0.79"></rect><rect width="409" height="3" x="552.5" y="468.5" rx="1.5" transform="rotate(45, 757, 470)" opacity="0.71"></rect><rect width="173" height="3" x="54.5" y="514.5" rx="1.5" transform="rotate(45, 141, 516)" opacity="0.97"></rect><rect width="44" height="3" x="46" y="157.5" rx="1.5" transform="rotate(45, 68, 159)" opacity="0.16"></rect><rect width="460" height="3" x="-84" y="429.5" rx="1.5" transform="rotate(45, 146, 431)" opacity="0.29"></rect><rect width="268" height="3" x="115" y="657.5" rx="1.5" transform="rotate(45, 249, 659)" opacity="0.79"></rect><rect width="152" height="3" x="-25" y="563.5" rx="1.5" transform="rotate(45, 51, 565)" opacity="0.45"></rect><rect width="228" height="3" x="385" y="155.5" rx="1.5" transform="rotate(45, 499, 157)" opacity="0.28"></rect><rect width="402" height="3" x="157" y="209.5" rx="1.5" transform="rotate(45, 358, 211)" opacity="0.57"></rect><rect width="382" height="3" x="-150" y="747.5" rx="1.5" transform="rotate(45, 41, 749)" opacity="0.28"></rect><rect width="68" height="3" x="602" y="516.5" rx="1.5" transform="rotate(45, 636, 518)" opacity="0.19"></rect><rect width="229" height="3" x="79.5" y="707.5" rx="1.5" transform="rotate(45, 194, 709)" opacity="0.86"></rect><rect width="252" height="3" x="565" y="645.5" rx="1.5" transform="rotate(45, 691, 647)" opacity="0.64"></rect><rect width="560" height="3" x="57" y="302.5" rx="1.5" transform="rotate(45, 337, 304)" opacity="0.79"></rect></g></svg>