<svg xmlns="http://www.w3.org/2000/svg" version="1.1" xmlns:xlink="http://www.w3.org/1999/xlink" xmlns:svgjs="http://svgjs.dev/svgjs" viewBox="0 0 2400 800"><defs><linearGradient x1="50%" y1="0%" x2="50%" y2="100%" id="sssurf-grad"><stop stop-color="hsl(162, 100%, 58%)" stop-opacity="1" offset="0%"></stop><stop stop-color="hsl(270, 73%, 53%)" stop-opacity="1" offset="100%"></stop></linearGradient></defs><g fill="url(#sssurf-grad)" transform="matrix(1,0,0,1,-10.4755859375,329.8222961425781)"><path d="M-10,10C242.08333333333331,17.291666666666664,697.9166666666666,55.20833333333333,1200,45C1702.0833333333335,34.79166666666667,2097.9166666666665,-112.95833333333333,2400,-39C2702.0833333333335,34.95833333333333,3254.1666666666665,204.375,2650,400C2045.8333333333335,595.625,156.25,795.8333333333334,-500,900" transform="matrix(1,0,0,1,0,25)" opacity="0.05"></path><path d="M-10,10C242.08333333333331,17.291666666666664,697.9166666666666,55.20833333333333,1200,45C1702.0833333333335,34.79166666666667,2097.9166666666665,-112.95833333333333,2400,-39C2702.0833333333335,34.95833333333333,3254.1666666666665,204.375,2650,400C2045.8333333333335,595.625,156.25,795.8333333333334,-500,900" transform="matrix(1,0,0,1,0,50)" opacity="0.53"></path><path d="M-10,10C242.08333333333331,17.291666666666664,697.9166666666666,55.20833333333333,1200,45C1702.0833333333335,34.79166666666667,2097.9166666666665,-112.95833333333333,2400,-39C2702.0833333333335,34.95833333333333,3254.1666666666665,204.375,2650,400C2045.8333333333335,595.625,156.25,795.8333333333334,-500,900" transform="matrix(1,0,0,1,0,75)" opacity="1.00"></path></g></svg>