<svg xmlns="http://www.w3.org/2000/svg" version="1.1" xmlns:xlink="http://www.w3.org/1999/xlink" xmlns:svgjs="http://svgjs.dev/svgjs" viewBox="0 0 800 800"><defs><filter id="uuunion-blur" x="-100%" y="-100%" width="400%" height="400%" color-interpolation-filters="sRGB">
        <feGaussianBlur in="SourceGraphic" stdDeviation="7.5 0" result="blur"></feGaussianBlur>
        <feDropShadow stdDeviation="12.307692307692308" in="blur" dx="10" dy="10" flood-color="#2dd4bf" flood-opacity="0.25" x="0%" y="0%" width="100%" height="100%"></feDropShadow>
      </filter><filter id="uuunion-blur2" x="-100%" y="-100%" width="400%" height="400%" color-interpolation-filters="sRGB">
        <feGaussianBlur in="SourceGraphic" stdDeviation="7.5 0" result="blur"></feGaussianBlur>
        <feDropShadow stdDeviation="12.307692307692308" in="blur" dx="-10" dy="-10" flood-color="#2dd4bf" flood-opacity="0.25" x="0%" y="0%" width="100%" height="100%"></feDropShadow>
      </filter><linearGradient gradientTransform="rotate(0, 0.5, 0.5)" x1="50%" y1="0%" x2="50%" y2="100%" id="uuunion-grad"><stop stop-color="#14b8a6" offset="10%"></stop><stop stop-color="#2dd4bf" offset="90%"></stop></linearGradient><linearGradient gradientTransform="rotate(135, 0.5, 0.5)" x1="50%" y1="0%" x2="50%" y2="100%" id="uuunion-grad2"><stop stop-color="#14b8a6" offset="25%"></stop><stop stop-color="#2dd4bf" offset="100%"></stop></linearGradient><linearGradient gradientTransform="rotate(333, 0.5, 0.5)" x1="50%" y1="0%" x2="50%" y2="100%" id="uuunion-grad3"><stop stop-color="#14b8a6" offset="0%"></stop><stop stop-color="#2dd4bf" offset="75%"></stop></linearGradient></defs><path d="M-78.93 -77.92Q-64.31 -75.87 -49.69 -74.08 -35.07 -72.65 -20.45 -71.68 -5.83 -71.23 8.77 -71.32 23.39 -71.95 38.01 -73.08 52.63 -74.64 67.25 -76.53 81.87 -78.64 96.49 -80.84 111.11 -82.98 125.73 -84.93 140.35 -86.58 154.97 -87.82 169.59 -88.57 184.21 -88.79 198.83 -88.46 213.45 -87.61 228.07 -86.28 242.69 -84.56 257.3 -82.56 271.92 -80.4 286.54 -78.21 301.16 -76.13 315.78 -74.3 330.4 -72.82 345.02 -71.78 359.64 -71.25 374.26 -71.27 388.88 -71.83 403.5 -72.9 418.12 -74.41 432.74 -76.27 447.36 -78.36 461.98 -80.55 476.6 -82.7 491.22 -84.69 505.83 -86.38 520.45 -87.68 535.07 -88.5 549.69 -88.79 564.31 -88.54 578.93 -87.75 593.55 -86.48 608.17 -84.81 622.79 -82.84 637.41 -80.69 652.03 -78.5 666.65 -76.4 681.27 -74.52 695.89 -72.99 710.51 -71.89 725.13 -71.29 739.75 -71.24 754.36 -71.73 768.98 -72.73 783.6 -74.19 798.22 -76.01 812.84 -78.07 827.46 -80.25 842.08 -82.42 856.7 -84.44 858.91 -69.55 862.38 -54.67 866.91 -39.78 872.23 -24.89 878.02 -10.01 883.93 4.87 889.6 19.75 894.69 34.64 898.9 49.53 901.97 64.41 903.72 79.3 904.04 94.19 902.91 109.07 900.41 123.96 896.68 138.85 891.94 153.73 886.49 168.62 880.64 183.5 874.76 198.39 869.19 213.28 864.27 228.16 860.3 243.05 857.51 257.94 856.07 272.82 856.08 287.71 857.52 302.6 860.32 317.48 864.3 332.37 869.22 347.25 874.79 362.14 880.68 377.03 886.52 391.91 891.97 406.8 896.7 421.69 900.43 436.57 902.92 451.46 904.04 466.35 903.71 481.23 901.95 496.12 898.88 511 894.66 525.89 889.57 540.78 883.89 555.66 877.99 570.55 872.2 585.44 866.88 600.32 862.36 615.21 858.89 630.1 856.69 644.98 855.9 659.87 856.55 674.75 858.62 689.64 861.97 704.53 866.4 719.41 871.66 734.3 877.41 749.19 883.32 764.07 889.03 778.96 894.2 793.84 898.51 808.73 901.71 823.62 903.6 838.5 904.07 853.39 903.1 868.28 887.72 873.59 872.34 879.31 856.96 885.07 841.59 890.51 826.21 895.3 810.83 899.14 795.45 901.79 780.08 903.08 764.7 902.94 749.32 901.37 733.94 898.47 718.57 894.42 703.19 889.48 687.81 883.95 672.43 878.17 657.06 872.5 641.68 867.3 626.3 862.89 610.92 859.55 595.55 857.47 580.17 856.8 564.79 857.56 549.41 859.73 534.04 863.15 518.66 867.62 503.28 872.86 487.9 878.54 472.53 884.32 457.15 889.82 441.77 894.71 426.4 898.69 411.02 901.51 395.64 902.99 380.26 903.04 364.89 901.65 349.51 898.92 334.13 895.02 318.75 890.18 303.38 884.7 288 878.93 272.62 873.23 257.24 867.95 241.87 863.42 226.49 859.92 211.11 857.67 195.73 856.8 180.36 857.38 164.98 859.36 149.6 862.63 134.22 866.97 118.85 872.13 103.47 877.77 88.09 883.56 72.71 889.12 57.34 894.11 41.96 898.23 26.58 901.21 11.21 902.87 -4.16 903.11 -19.54 901.92 -34.92 899.36 -50.29 895.59 -65.67 890.86 -81.05 885.45 -81.09 870.4 -81.07 855.35 -80.99 840.29 -80.84 825.24 -80.64 810.19 -80.41 795.13 -80.15 780.08 -79.88 765.03 -79.61 749.98 -79.37 734.92 -79.17 719.87 -79.02 704.82 -78.92 689.76 -78.9 674.71 -78.93 659.66 -79.03 644.61 -79.19 629.55 -79.4 614.5 -79.64 599.45 -79.9 584.39 -80.17 569.34 -80.43 554.29 -80.66 539.24 -80.86 524.18 -81 509.13 -81.08 494.08 -81.09 479.02 -81.04 463.97 -80.93 448.92 -80.76 433.86 -80.54 418.81 -80.29 403.76 -80.03 388.71 -79.76 373.65 -79.5 358.6 -79.28 343.55 -79.1 328.49 -78.97 313.44 -78.9 298.39 -78.9 283.34 -78.97 268.28 -79.1 253.23 -79.28 238.18 -79.5 223.12 -79.76 208.07 -80.02 193.02 -80.29 177.96 -80.54 162.91 -80.76 147.86 -80.93 132.81 -81.04 117.75 -81.09 102.7 -81.08 87.65 -81 72.59 -80.86 57.54 -80.67 42.49 -80.43 27.44 -80.17 12.38 -79.9 -2.66 -79.64 -17.71 -79.4 -32.77 -79.19 -47.82 -79.03 -62.87 -78.93 -77.92" fill="url(#uuunion-grad)"></path><path d="M-78.93 -77.92Q-79.03 -62.87 -79.19 -47.82 -79.4 -32.77 -79.64 -17.71 -79.9 -2.66 -80.17 12.38 -80.43 27.44 -80.67 42.49 -80.86 57.54 -81 72.59 -81.08 87.65 -81.09 102.7 -81.04 117.75 -80.93 132.81 -80.76 147.86 -80.54 162.91 -80.29 177.96 -80.02 193.02 -79.76 208.07 -79.5 223.12 -79.28 238.18 -79.1 253.23 -78.97 268.28 -78.9 283.34 -78.9 298.39 -78.97 313.44 -79.1 328.49 -79.28 343.55 -79.5 358.6 -79.76 373.65 -80.03 388.71 -80.29 403.76 -70.22 406.29 -60.15 408.64 -50.08 410.75 -40.01 412.57 -29.94 414.04 -19.87 415.11 -0.99 415.93 2.27 415.99 14.69 409.19 27.04 401.74 39.32 393.7 51.54 385.14 63.69 376.17 75.79 366.92 87.83 357.52 99.83 348.1 111.79 338.8 123.72 329.74 135.64 321.06 147.54 312.84 159.46 305.17 171.38 298.1 183.34 291.65 195.33 285.83 207.37 280.62 219.48 275.95 231.66 271.75 243.92 267.94 256.27 264.4 268.73 261 281.29 257.63 293.96 254.17 306.74 250.48 319.64 246.48 332.66 242.06 345.8 237.15 359.05 231.7 372.4 225.68 385.86 219.1 399.41 211.97 413.05 204.34 426.75 196.28 440.51 187.86 454.32 179.2 468.16 170.39 482 161.55 495.84 152.79 509.66 144.21 523.44 135.92 537.15 127.99 550.79 120.5 564.33 113.48 577.76 106.97 591.06 100.97 604.22 95.46 617.21 90.4 630.04 85.73 642.68 81.37 655.14 77.25 667.4 73.27 679.45 69.32 691.31 65.3 702.96 61.13 714.41 56.71 725.67 51.98 736.74 46.86 747.63 41.33 758.36 35.35 768.95 28.92 779.4 22.06 789.74 14.8 800 7.2 793.77 -10.48 788.05 -28.17 783.31 -45.86 779.94 -63.55 778.2 -81.24 778.24 -98.93 780.07 -116.62 783.52 -134.31 768.9 -133.13 754.29 -132.38 739.68 -132.1 725.06 -132.3 710.45 -132.97 695.84 -134.07 681.23 -135.54 666.61 -137.28 652 -139.19 637.39 -141.15 622.77 -143.04 608.16 -144.73 593.55 -146.14 578.93 -147.17 564.32 -147.76 549.71 -147.88 535.09 -147.51 520.48 -146.67 505.87 -145.43 491.25 -143.86 476.64 -142.04 462.03 -140.1 447.41 -138.16 432.8 -136.32 418.19 -134.72 403.57 -133.43 388.96 -132.55 374.35 -132.13 359.74 -132.19 345.12 -132.73 330.51 -133.71 315.9 -135.08 301.28 -136.76 286.67 -138.63 272.06 -140.58 257.44 -142.5 242.83 -144.27 228.22 -145.77 213.6 -146.92 198.99 -147.64 184.38 -147.89 169.76 -147.66 155.15 -146.96 140.54 -145.83 125.92 -144.34 111.31 -142.59 96.7 -140.67 82.08 -138.72 67.47 -136.84 52.86 -135.16 38.25 -133.77 23.63 -132.76 9.02 -132.2 -5.58 -132.12 -20.2 -132.52 -34.81 -133.38 -49.42 -134.65 -64.04 -136.24 -78.65 -138.07 -93.26 -140.01 -107.88 -141.95 -122.49 -143.78 -131.92 -131.8 -114.98 -113.09 -105.93 -104.38 -96.91 -95.6 -87.91 -86.77 -78.93 -77.92" fill="url(#uuunion-grad2)" filter="url(#uuunion-blur)"></path><path d="M805.95 411.52Q816.02 409.51 826.09 407.25 836.17 404.78 846.24 402.18 856.31 399.52 866.38 396.88 876.45 394.32 886.52 391.91 891.97 406.8 896.7 421.69 900.43 436.57 902.92 451.46 904.04 466.35 903.71 481.23 901.95 496.12 898.88 511 894.66 525.89 889.57 540.78 883.89 555.66 877.99 570.55 872.2 585.44 866.88 600.32 862.36 615.21 858.89 630.1 856.69 644.98 855.9 659.87 856.55 674.75 858.62 689.64 861.97 704.53 866.4 719.41 871.66 734.3 877.41 749.19 883.32 764.07 889.03 778.96 894.2 793.84 898.51 808.73 901.71 823.62 903.6 838.5 904.07 853.39 903.1 868.28 888.98 873.14 874.87 878.36 860.76 883.66 846.65 888.78 832.54 893.43 818.42 897.38 804.31 900.42 790.2 902.39 776.09 903.18 761.98 902.76 747.86 901.15 733.75 898.42 719.64 894.74 705.53 890.28 691.42 885.28 677.3 880 663.19 874.72 649.08 869.72 634.97 865.26 620.86 861.57 606.74 858.85 592.63 857.23 578.52 856.81 564.41 857.6 550.3 859.57 536.18 862.6 522.07 866.55 507.96 871.2 493.85 876.31 479.74 881.62 465.62 886.84 451.51 891.7 437.4 895.95 423.29 899.36 409.18 901.76 395.06 903.02 380.95 903.07 366.84 901.91 352.73 899.6 338.62 896.26 324.5 892.08 310.39 887.26 296.28 882.06 282.17 876.75 268.06 871.61 253.94 866.91 239.83 862.89 225.72 859.78 211.61 857.72 197.5 856.83 183.38 857.15 169.27 858.67 155.16 861.31 141.05 864.93 126.94 869.34 112.82 874.3 98.71 879.57 84.6 884.85 70.49 889.88 56.38 894.4 42.26 898.16 28.15 900.96 7 897.86 -0.02 882.89 -0.04 872.74 -0.09 862.59 -0.16 852.44 -0.25 842.29 -0.17 827.07 0.52 822 13.07 815.18 25.55 807.44 37.97 798.86 50.31 789.54 62.59 779.61 74.8 769.25 86.94 758.64 99.02 747.96 111.05 737.41 123.03 727.17 134.97 717.4 146.89 708.27 158.78 699.88 170.66 692.33 182.55 685.65 194.45 679.87 206.38 674.95 218.35 670.83 230.37 667.4 242.45 664.55 254.61 662.11 266.85 659.93 279.19 657.82 291.63 655.6 304.18 653.1 316.84 650.16 329.63 646.65 342.54 642.44 355.57 637.47 368.73 631.67 382 625.05 395.4 617.61 408.9 609.44 422.5 600.6 436.2 591.22 449.98 581.45 463.82 571.43 477.72 561.34 491.65 551.33 505.6 541.58 519.56 532.22 533.5 523.39 547.41 515.2 561.26 507.71 575.04 500.99 588.73 495.03 602.32 489.82 615.77 485.31 629.08 481.41 642.24 478.02 655.22 475.01 668.02 472.23 680.62 469.53 693.03 466.76 705.22 463.76 717.21 460.41 728.98 456.58 740.55 452.16 751.91 447.1 763.07 441.33 774.04 434.86 784.83 427.7 800.71 415.7 805.95 411.52" fill="url(#uuunion-grad3)" filter="url(#uuunion-blur2)"></path></svg>